<svg xmlns="http://www.w3.org/2000/svg" viewBox="0 0 1336 474" font-family="-apple-system,Segoe UI,Helvetica,Arial,sans-serif">
<defs><pattern id="dots" width="22" height="22" patternUnits="userSpaceOnUse"><circle cx="1.4" cy="1.4" r="1.4" fill="#d7d9e0"/></pattern><marker id="ar" markerWidth="9" markerHeight="9" refX="7" refY="3" orient="auto"><path d="M0,0 L7,3 L0,6 Z" fill="#9aa0ad"/></marker><marker id="arb" markerWidth="9" markerHeight="9" refX="7" refY="3" orient="auto"><path d="M0,0 L7,3 L0,6 Z" fill="#c4a6f0"/></marker><filter id="sh" x="-20%" y="-20%" width="140%" height="160%"><feDropShadow dx="0" dy="2" stdDeviation="3" flood-color="#1a1f36" flood-opacity="0.12"/></filter></defs>
<rect x="0" y="0" width="1336" height="474" fill="#f7f8fb"/>
<rect x="0" y="0" width="1336" height="474" fill="url(#dots)"/>
<text x="50" y="32" font-size="18" font-weight="700" fill="#1a1f36">Workflow 1 — Rule Setup via LINE</text>
<path d="M420.0,362 C420.0,322 420.0,176 420.0,142" fill="none" stroke="#c4a6f0" stroke-width="2" stroke-dasharray="5 4" marker-end="url(#arb)"/>
<path d="M246,105.0 C286,105.0 282,105.0 316,105.0" fill="none" stroke="#9aa0ad" stroke-width="2" marker-end="url(#ar)"/>
<path d="M518,105.0 C596.0,105.0 596.0,105.0 668,105.0" fill="none" stroke="#9aa0ad" stroke-width="2" marker-end="url(#ar)"/>
<path d="M870,105.0 C910,105.0 842,105.0 876,105.0" fill="none" stroke="#9aa0ad" stroke-width="2" marker-end="url(#ar)"/>
<path d="M1078,105.0 C1118,105.0 1050,105.0 1084,105.0" fill="none" stroke="#9aa0ad" stroke-width="2" marker-end="url(#ar)"/>
<g filter="url(#sh)"><rect x="50" y="74" width="196" height="62" rx="10" fill="#ffffff" stroke="#e3e5ec"/></g>
<rect x="50" y="74" width="6" height="62" rx="3" fill="#ff6d5a"/>
<rect x="66" y="87" width="14" height="14" rx="4" fill="#ff6d5a"/>
<text x="90" y="99" font-size="13.5" font-weight="700" fill="#1a1f36">Webhook</text>
<text x="90" y="117" font-size="10.5" fill="#6b7280">Webhook</text>
<g filter="url(#sh)"><rect x="322" y="74" width="196" height="62" rx="10" fill="#ffffff" stroke="#e3e5ec"/></g>
<rect x="322" y="74" width="6" height="62" rx="3" fill="#9333ea"/>
<rect x="338" y="87" width="14" height="14" rx="4" fill="#9333ea"/>
<text x="362" y="99" font-size="13.5" font-weight="700" fill="#1a1f36">AI Agent</text>
<text x="362" y="117" font-size="10.5" fill="#6b7280">AI Agent</text>
<g filter="url(#sh)"><rect x="322" y="362" width="196" height="62" rx="10" fill="#ffffff" stroke="#e3e5ec"/></g>
<rect x="322" y="362" width="6" height="62" rx="3" fill="#e8710a"/>
<rect x="338" y="375" width="14" height="14" rx="4" fill="#e8710a"/>
<text x="362" y="387" font-size="13.5" font-weight="700" fill="#1a1f36" textLength="148" lengthAdjust="spacingAndGlyphs">Google Gemini Chat Model1</text>
<text x="362" y="405" font-size="10.5" fill="#6b7280">Gemini Chat Model</text>
<g filter="url(#sh)"><rect x="674" y="74" width="196" height="62" rx="10" fill="#ffffff" stroke="#e3e5ec"/></g>
<rect x="674" y="74" width="6" height="62" rx="3" fill="#5b67f0"/>
<rect x="690" y="87" width="14" height="14" rx="4" fill="#5b67f0"/>
<text x="714" y="99" font-size="13.5" font-weight="700" fill="#1a1f36">Code in JavaScript</text>
<text x="714" y="117" font-size="10.5" fill="#6b7280">Code</text>
<g filter="url(#sh)"><rect x="882" y="74" width="196" height="62" rx="10" fill="#ffffff" stroke="#e3e5ec"/></g>
<rect x="882" y="74" width="6" height="62" rx="3" fill="#0fa958"/>
<rect x="898" y="87" width="14" height="14" rx="4" fill="#0fa958"/>
<text x="922" y="99" font-size="13.5" font-weight="700" fill="#1a1f36">Append row in sheet</text>
<text x="922" y="117" font-size="10.5" fill="#6b7280">Google Sheets</text>
<g filter="url(#sh)"><rect x="1090" y="74" width="196" height="62" rx="10" fill="#ffffff" stroke="#e3e5ec"/></g>
<rect x="1090" y="74" width="6" height="62" rx="3" fill="#8b5cf6"/>
<rect x="1106" y="87" width="14" height="14" rx="4" fill="#8b5cf6"/>
<text x="1130" y="99" font-size="13.5" font-weight="700" fill="#1a1f36">HTTP Request</text>
<text x="1130" y="117" font-size="10.5" fill="#6b7280">HTTP Request</text>
<g filter="url(#sh)"><rect x="498" y="282" width="196" height="62" rx="10" fill="#ffffff" stroke="#e3e5ec"/></g>
<rect x="498" y="282" width="6" height="62" rx="3" fill="#e8710a"/>
<rect x="514" y="295" width="14" height="14" rx="4" fill="#e8710a"/>
<text x="538" y="307" font-size="13.5" font-weight="700" fill="#1a1f36" textLength="148" lengthAdjust="spacingAndGlyphs">Structured Output Parser</text>
<text x="538" y="325" font-size="10.5" fill="#6b7280">Output Parser</text>
</svg>